<svg width="360" height="280" viewBox="0 0 360 280" fill="none" xmlns="http://www.w3.org/2000/svg">
  <defs>
    <linearGradient id="li1" x1="40" y1="30" x2="320" y2="260" gradientUnits="userSpaceOnUse">
      <stop stop-color="#2563eb"/>
      <stop offset="1" stop-color="#7c3aed"/>
    </linearGradient>
  </defs>
  <rect x="20" y="20" width="320" height="240" rx="28" fill="url(#li1)" opacity="0.12"/>
  <rect x="40" y="50" width="280" height="180" rx="18" fill="white"/>
  <rect x="70" y="90" width="140" height="14" rx="7" fill="#cbd5e1"/>
  <rect x="70" y="120" width="220" height="10" rx="5" fill="#e2e8f0"/>
  <rect x="70" y="140" width="200" height="10" rx="5" fill="#e2e8f0"/>
  <rect x="70" y="170" width="110" height="36" rx="10" fill="#2563eb" opacity="0.9"/>
  <rect x="190" y="170" width="80" height="36" rx="10" fill="#7c3aed" opacity="0.9"/>
  <circle cx="260" cy="92" r="26" fill="#2563eb" opacity="0.2"/>
  <path d="M252 92c0-6 4-10 10-10s10 4 10 10-4 10-10 10-10-4-10-10Zm-6 18c0-5.5 4.5-10 10-10h12c5.5 0 10 4.5 10 10v6H246v-6Z" fill="#2563eb"/>
  <path d="M130 210c-12 0-22-10-22-22s10-22 22-22 22 10 22 22-10 22-22 22Z" fill="#7c3aed" opacity="0.25"/>
  <path d="M130 204c-8.8 0-16-7.2-16-16s7.2-16 16-16 16 7.2 16 16-7.2 16-16 16Z" fill="#7c3aed" opacity="0.5"/>
  <path d="M130 196c-4.4 0-8-3.6-8-8s3.6-8 8-8 8 3.6 8 8-3.6 8-8 8Z" fill="#7c3aed"/>
</svg>
